<svg xmlns="http://www.w3.org/2000/svg" xmlns:xlink="http://www.w3.org/1999/xlink" width="840" height="329" viewBox="0 0 860 329" fill="none">
<title>Chop logo</title>
<desc>Vector logo with traced knife and chef hat, paired with a Geist Sans wordmark.</desc>
<defs>
<g id="glyph-0-0">
<path d="M 55.15625 2.296875 C 45.644531 2.296875 37.171875 0.1875 29.734375 -4.03125 C 22.296875 -8.257812 16.441406 -14.332031 12.171875 -22.25 C 7.898438 -30.164062 5.765625 -39.738281 5.765625 -50.96875 C 5.765625 -61.726562 7.78125 -71.113281 11.8125 -79.125 C 15.84375 -87.144531 21.597656 -93.382812 29.078125 -97.84375 C 36.566406 -102.3125 45.453125 -104.546875 55.734375 -104.546875 C 69.742188 -104.546875 80.660156 -101.132812 88.484375 -94.3125 C 96.304688 -87.5 101.320312 -77.566406 103.53125 -64.515625 L 74.296875 -63.5 C 73.335938 -69.351562 71.226562 -73.890625 67.96875 -77.109375 C 64.707031 -80.328125 60.628906 -81.9375 55.734375 -81.9375 C 48.722656 -81.9375 43.460938 -79.054688 39.953125 -73.296875 C 36.453125 -67.535156 34.703125 -60.09375 34.703125 -50.96875 C 34.703125 -41.664062 36.523438 -34.226562 40.171875 -28.65625 C 43.816406 -23.082031 48.90625 -20.296875 55.4375 -20.296875 C 61.007812 -20.296875 65.332031 -22 68.40625 -25.40625 C 71.476562 -28.820312 73.441406 -33.648438 74.296875 -39.890625 L 103.6875 -38.875 C 101.476562 -25.53125 96.335938 -15.332031 88.265625 -8.28125 C 80.203125 -1.226562 69.164062 2.296875 55.15625 2.296875 Z M 55.15625 2.296875 "/>
</g>
<g id="glyph-0-1">
<path d="M 8.921875 0 L 8.921875 -102.234375 L 37.15625 -102.234375 L 37.15625 -62.78125 L 67.53125 -62.78125 L 67.53125 -102.234375 L 95.765625 -102.234375 L 95.765625 0 L 67.53125 0 L 67.53125 -40.171875 L 37.15625 -40.171875 L 37.15625 0 Z M 8.921875 0 "/>
</g>
<g id="glyph-0-2">
<path d="M 57.59375 2.296875 C 46.84375 2.296875 37.578125 0.140625 29.796875 -4.171875 C 22.023438 -8.492188 16.078125 -14.640625 11.953125 -22.609375 C 7.828125 -30.578125 5.765625 -40.03125 5.765625 -50.96875 C 5.765625 -61.914062 7.828125 -71.394531 11.953125 -79.40625 C 16.078125 -87.425781 22.023438 -93.617188 29.796875 -97.984375 C 37.578125 -102.359375 46.84375 -104.546875 57.59375 -104.546875 C 68.445312 -104.546875 77.738281 -102.359375 85.46875 -97.984375 C 93.195312 -93.617188 99.125 -87.425781 103.25 -79.40625 C 107.375 -71.394531 109.4375 -61.914062 109.4375 -50.96875 C 109.4375 -40.03125 107.375 -30.578125 103.25 -22.609375 C 99.125 -14.640625 93.195312 -8.492188 85.46875 -4.171875 C 77.738281 0.140625 68.445312 2.296875 57.59375 2.296875 Z M 57.59375 -20.296875 C 64.800781 -20.296875 70.421875 -22.957031 74.453125 -28.28125 C 78.484375 -33.613281 80.5 -41.175781 80.5 -50.96875 C 80.5 -60.757812 78.484375 -68.367188 74.453125 -73.796875 C 70.421875 -79.222656 64.800781 -81.9375 57.59375 -81.9375 C 50.394531 -81.9375 44.78125 -79.222656 40.75 -73.796875 C 36.71875 -68.367188 34.703125 -60.757812 34.703125 -50.96875 C 34.703125 -41.175781 36.71875 -33.613281 40.75 -28.28125 C 44.78125 -22.957031 50.394531 -20.296875 57.59375 -20.296875 Z M 57.59375 -20.296875 "/>
</g>
<g id="glyph-0-3">
<path d="M 8.921875 0 L 8.921875 -102.234375 L 52.703125 -102.234375 C 65.566406 -102.234375 75.671875 -99.113281 83.015625 -92.875 C 90.359375 -86.632812 94.03125 -78.09375 94.03125 -67.25 C 94.03125 -60.144531 92.375 -53.972656 89.0625 -48.734375 C 85.75 -43.503906 80.992188 -39.472656 74.796875 -36.640625 C 68.609375 -33.816406 61.242188 -32.40625 52.703125 -32.40625 L 37.15625 -32.40625 L 37.15625 0 Z M 37.15625 -55.015625 L 50.546875 -55.015625 C 54.960938 -55.015625 58.515625 -56.046875 61.203125 -58.109375 C 63.890625 -60.171875 65.234375 -63.21875 65.234375 -67.25 C 65.234375 -71.28125 63.910156 -74.347656 61.265625 -76.453125 C 58.628906 -78.566406 55.054688 -79.625 50.546875 -79.625 L 37.15625 -79.625 Z M 37.15625 -55.015625 "/>
</g>
</defs>
<g fill="#FAFAFA">
<g transform="translate(10 35)">
<use xlink:href="#glyph-0-0" x="0" y="144.719727"/>
<use xlink:href="#glyph-0-1" x="103" y="144.719727"/>
<use xlink:href="#glyph-0-2" x="202" y="144.719727"/>
<use xlink:href="#glyph-0-3" x="315" y="144.719727"/>
<use xlink:href="#glyph-0-0" x="408" y="144.719727"/>
<use xlink:href="#glyph-0-1" x="511" y="144.719727"/>
<use xlink:href="#glyph-0-2" x="610" y="144.719727"/>
<use xlink:href="#glyph-0-3" x="723" y="144.719727"/>
</g>
</g>
<g fill="#006047">
<path transform="translate(219 78) rotate(-1.5 51 41.5) scale(0.1 -0.1)" d="M453 819 c-61 -11 -95 -32 -143 -86 -28 -32 -48 -47 -61 -45 -41 7 -126 -19 -162 -49 -126 -104 -105 -290 40 -363 18 -9 40 -16 50 -16 17 0 19 -10 20 -102 1 -167 -7 -151 65 -119 93 42 161 54 274 49 109 -5 239 -42 239 -67 0 -8 7 -16 15 -18 13 -4 13 -3 0 6 -9 7 -10 11 -3 11 6 0 15 -5 18 -10 17 -28 25 12 25 126 0 105 2 124 15 124 24 0 87 35 111 62 44 47 67 108 61 159 -15 122 -99 200 -219 203 -45 1 -59 5 -64 18 -9 31 -92 95 -136 106 -68 17 -100 20 -145 11z"/>
<path transform="translate(23 327) scale(0.1 -0.1)" d="M371 1264 c-95 -20 -168 -60 -237 -128 -72 -73 -110 -146 -123 -239 -12 -83 -1 -158 33 -232 29 -63 103 -146 158 -177 28 -16 35 -24 26 -31 -10 -6 -9 -8 3 -4 8 3 41 -4 73 -14 73 -25 179 -26 247 -4 29 10 93 43 143 73 177 108 256 119 531 76 163 -26 203 -29 425 -29 264 1 289 4 590 70 224 49 275 57 375 58 112 0 189 -21 230 -63 l30 -31 5 -223 c5 -244 9 -257 71 -295 47 -29 338 -54 759 -66 554 -17 1439 64 2047 186 57 11 107 18 112 15 5 -4 11 -2 13 2 1 5 68 23 148 41 400 90 769 217 1076 372 86 43 161 76 165 73 5 -3 8 -1 7 4 -2 6 42 39 97 73 109 68 187 125 280 203 105 90 115 99 155 151 46 60 52 101 19 131 -21 19 -98 19 -3708 21 -3125 1 -3696 -1 -3750 -13z m6749 -348 c0 -7 -182 -111 -252 -144 -461 -217 -1259 -384 -2188 -457 -398 -31 -554 -37 -925 -39 -341 -1 -383 1 -411 16 -17 10 -34 25 -36 35 -7 26 7 60 29 71 10 6 226 12 493 16 904 11 1528 63 2150 177 443 81 841 193 1095 310 46 21 45 20 45 15z"/>
</g>
</svg>
