
<svg xmlns="http://www.w3.org/2000/svg" viewBox="978 300 847 942">
    <defs>
        <clipPath id="bladeClip">
            <path d="M 1787.7 318.9 Q 1791.3 315.9, 1787.7 318.9 Q 1784.1 322.0, 1779.3 326.7 Q 1774.6 331.4, 1769.5 336.5 Q 1764.3 341.7, 1759.2 346.8 Q 1754.0 352.0, 1748.8 357.2 Q 1743.7 362.3, 1738.5 367.5 Q 1733.2 372.8, 1728.0 378.0 Q 1722.8 383.2, 1717.5 388.5 Q 1712.3 393.7, 1707.2 398.8 Q 1702.0 404.0, 1696.8 409.2 Q 1691.6 414.4, 1686.3 419.7 Q 1681.0 425.0, 1675.7 430.3 Q 1670.3 435.7, 1665.0 441.0 Q 1659.8 446.2, 1654.6 451.5 Q 1649.4 456.7, 1644.4 461.8 Q 1639.4 466.9, 1634.7 471.8 Q 1630.0 476.7, 1625.3 481.5 Q 1620.6 486.3, 1615.8 491.2 Q 1610.9 496.1, 1605.8 501.2 Q 1600.7 506.4, 1595.5 511.6 Q 1590.4 516.9, 1585.4 522.0 Q 1580.4 527.1, 1575.5 531.9 Q 1570.7 536.8, 1565.9 541.6 Q 1561.1 546.4, 1556.3 551.2 Q 1551.6 555.9, 1547.0 560.6 Q 1542.4 565.3, 1537.8 570.0 Q 1533.2 574.8, 1528.4 579.6 Q 1523.6 584.4, 1518.6 589.4 Q 1513.6 594.4, 1508.3 599.7 Q 1503.1 604.9, 1498.0 610.0 Q 1492.9 615.1, 1488.0 620.0 Q 1483.1 624.9, 1478.0 630.0 Q 1472.9 635.1, 1467.6 640.4 Q 1462.3 645.7, 1457.0 651.0 Q 1451.7 656.3, 1446.4 661.7 Q 1441.1 667.0, 1435.9 672.2 Q 1430.8 677.5, 1426.1 682.4 Q 1421.4 687.2, 1416.9 691.8 Q 1412.4 696.3, 1407.8 700.8 Q 1403.2 705.3, 1398.7 709.8 Q 1394.1 714.4, 1389.7 718.9 Q 1385.2 723.4, 1380.6 728.1 Q 1376.0 732.8, 1371.1 737.8 Q 1366.1 742.8, 1360.9 748.1 Q 1355.7 753.3, 1350.3 758.7 Q 1345.0 764.0, 1339.7 769.3 Q 1334.3 774.7, 1329.0 780.0 Q 1323.7 785.3, 1318.4 790.6 Q 1313.1 795.9, 1307.9 801.1 Q 1302.8 806.3, 1297.9 811.3 Q 1293.0 816.3, 1288.2 821.3 Q 1283.4 826.4, 1278.8 831.5 Q 1274.3 836.7, 1271.5 841.8 Q 1268.6 846.9, 1268.8 851.9 Q 1269.0 856.9, 1271.9 861.8 Q 1274.8 866.7, 1279.1 871.5 Q 1283.4 876.4, 1288.2 881.3 Q 1293.0 886.3, 1297.8 891.3 Q 1302.7 896.4, 1307.5 901.3 Q 1312.3 906.2, 1317.2 911.2 Q 1322.1 916.1, 1327.1 921.1 Q 1332.1 926.1, 1337.2 931.2 Q 1342.4 936.3, 1347.7 941.5 Q 1352.9 946.7, 1358.1 951.8 Q 1363.3 956.9, 1368.3 962.0 Q 1373.3 967.1, 1378.3 972.2 Q 1383.4 977.3, 1388.5 982.5 Q 1393.7 987.8, 1398.8 993.0 Q 1404.0 998.2, 1409.2 1003.2 Q 1414.4 1008.2, 1419.7 1011.9 Q 1425.0 1015.6, 1430.3 1016.3 Q 1435.7 1017.0, 1441.0 1014.4 Q 1446.3 1011.9, 1451.6 1007.4 Q 1456.9 1003.0, 1462.2 998.2 Q 1467.4 993.3, 1472.5 988.5 Q 1477.6 983.7, 1482.6 978.8 Q 1487.7 974.0, 1492.7 969.1 Q 1497.6 964.2, 1502.5 959.3 Q 1507.4 954.3, 1512.3 949.1 Q 1517.3 943.9, 1522.3 938.7 Q 1527.3 933.4, 1532.1 928.4 Q 1536.9 923.3, 1541.6 918.3 Q 1546.2 913.4, 1550.8 908.3 Q 1555.4 903.2, 1560.0 898.0 Q 1564.6 892.8, 1569.1 887.6 Q 1573.7 882.4, 1578.2 877.3 Q 1582.6 872.3, 1587.0 867.3 Q 1591.3 862.3, 1595.7 857.1 Q 1600.1 851.9, 1604.5 846.6 Q 1608.9 841.3, 1613.3 836.0 Q 1617.7 830.7, 1622.0 825.3 Q 1626.2 820.0, 1630.5 814.7 Q 1634.7 809.3, 1638.8 804.0 Q 1642.9 798.7, 1646.9 793.4 Q 1650.9 788.1, 1654.8 782.8 Q 1658.7 777.6, 1662.5 772.5 Q 1666.2 767.4, 1670.0 762.2 Q 1673.7 756.9, 1677.3 751.6 Q 1680.9 746.3, 1684.5 741.0 Q 1688.1 735.7, 1691.7 730.3 Q 1695.2 725.0, 1698.8 719.7 Q 1702.4 714.3, 1705.8 709.0 Q 1709.2 703.7, 1712.5 698.3 Q 1715.8 692.9, 1719.0 687.5 Q 1722.2 682.1, 1725.3 676.7 Q 1728.4 671.3, 1731.3 666.0 Q 1734.2 660.7, 1737.2 655.3 Q 1740.1 650.0, 1743.0 644.7 Q 1745.9 639.3, 1748.8 634.0 Q 1751.6 628.7, 1754.2 623.3 Q 1756.9 618.0, 1759.3 612.7 Q 1761.7 607.3, 1764.0 602.0 Q 1766.3 596.7, 1768.7 591.3 Q 1771.0 586.0, 1773.3 580.7 Q 1775.6 575.3, 1777.8 570.0 Q 1779.9 564.7, 1781.9 559.3 Q 1783.9 554.0, 1785.6 548.7 Q 1787.4 543.3, 1789.0 538.0 Q 1790.6 532.7, 1792.1 527.3 Q 1793.7 522.0, 1795.2 516.7 Q 1796.6 511.3, 1797.9 506.0 Q 1799.2 500.7, 1800.5 495.3 Q 1801.7 490.0, 1802.8 484.7 Q 1803.9 479.3, 1804.8 474.0 Q 1805.7 468.7, 1806.5 463.3 Q 1807.2 458.0, 1808.0 452.7 Q 1808.7 447.3, 1809.3 442.0 Q 1809.9 436.7, 1810.4 431.3 Q 1810.9 426.0, 1811.3 420.7 Q 1811.6 415.3, 1811.8 410.0 Q 1811.9 404.7, 1811.8 399.3 Q 1811.6 394.0, 1811.3 388.7 Q 1811.0 383.3, 1810.6 378.0 Q 1810.2 372.7, 1809.8 367.3 Q 1809.4 362.0, 1808.8 356.7 Q 1808.1 351.3, 1807.2 346.0 Q 1806.4 340.7, 1805.2 335.4 Q 1803.9 330.2, 1802.2 325.6 Q 1800.6 320.9, 1798.5 318.2 Q 1796.4 315.4, 1793.9 315.7 Z"/>
        </clipPath>
        <filter id="bladeShadow" x="-12%" y="-12%" width="124%" height="124%">
            <feDropShadow dx="0" dy="2" stdDeviation="3.5" flood-color="#C5D0D6" flood-opacity="0.20"/>
        </filter>
        <linearGradient id="reflectionGradient" x1="18%" y1="12%" x2="84%" y2="88%">
            <stop offset="0%" stop-color="#E6EDF1" stop-opacity="0.98"/>
            <stop offset="42%" stop-color="#D1DAE0" stop-opacity="0.92"/>
            <stop offset="100%" stop-color="#F7FAFB" stop-opacity="0.30"/>
        </linearGradient>
    </defs>
    <path d="M 1787.7 318.9 Q 1791.3 315.9, 1787.7 318.9 Q 1784.1 322.0, 1779.3 326.7 Q 1774.6 331.4, 1769.5 336.5 Q 1764.3 341.7, 1759.2 346.8 Q 1754.0 352.0, 1748.8 357.2 Q 1743.7 362.3, 1738.5 367.5 Q 1733.2 372.8, 1728.0 378.0 Q 1722.8 383.2, 1717.5 388.5 Q 1712.3 393.7, 1707.2 398.8 Q 1702.0 404.0, 1696.8 409.2 Q 1691.6 414.4, 1686.3 419.7 Q 1681.0 425.0, 1675.7 430.3 Q 1670.3 435.7, 1665.0 441.0 Q 1659.8 446.2, 1654.6 451.5 Q 1649.4 456.7, 1644.4 461.8 Q 1639.4 466.9, 1634.7 471.8 Q 1630.0 476.7, 1625.3 481.5 Q 1620.6 486.3, 1615.8 491.2 Q 1610.9 496.1, 1605.8 501.2 Q 1600.7 506.4, 1595.5 511.6 Q 1590.4 516.9, 1585.4 522.0 Q 1580.4 527.1, 1575.5 531.9 Q 1570.7 536.8, 1565.9 541.6 Q 1561.1 546.4, 1556.3 551.2 Q 1551.6 555.9, 1547.0 560.6 Q 1542.4 565.3, 1537.8 570.0 Q 1533.2 574.8, 1528.4 579.6 Q 1523.6 584.4, 1518.6 589.4 Q 1513.6 594.4, 1508.3 599.7 Q 1503.1 604.9, 1498.0 610.0 Q 1492.9 615.1, 1488.0 620.0 Q 1483.1 624.9, 1478.0 630.0 Q 1472.9 635.1, 1467.6 640.4 Q 1462.3 645.7, 1457.0 651.0 Q 1451.7 656.3, 1446.4 661.7 Q 1441.1 667.0, 1435.9 672.2 Q 1430.8 677.5, 1426.1 682.4 Q 1421.4 687.2, 1416.9 691.8 Q 1412.4 696.3, 1407.8 700.8 Q 1403.2 705.3, 1398.7 709.8 Q 1394.1 714.4, 1389.7 718.9 Q 1385.2 723.4, 1380.6 728.1 Q 1376.0 732.8, 1371.1 737.8 Q 1366.1 742.8, 1360.9 748.1 Q 1355.7 753.3, 1350.3 758.7 Q 1345.0 764.0, 1339.7 769.3 Q 1334.3 774.7, 1329.0 780.0 Q 1323.7 785.3, 1318.4 790.6 Q 1313.1 795.9, 1307.9 801.1 Q 1302.8 806.3, 1297.9 811.3 Q 1293.0 816.3, 1288.2 821.3 Q 1283.4 826.4, 1278.8 831.5 Q 1274.3 836.7, 1271.5 841.8 Q 1268.6 846.9, 1268.8 851.9 Q 1269.0 856.9, 1271.9 861.8 Q 1274.8 866.7, 1279.1 871.5 Q 1283.4 876.4, 1288.2 881.3 Q 1293.0 886.3, 1297.8 891.3 Q 1302.7 896.4, 1307.5 901.3 Q 1312.3 906.2, 1317.2 911.2 Q 1322.1 916.1, 1327.1 921.1 Q 1332.1 926.1, 1337.2 931.2 Q 1342.4 936.3, 1347.7 941.5 Q 1352.9 946.7, 1358.1 951.8 Q 1363.3 956.9, 1368.3 962.0 Q 1373.3 967.1, 1378.3 972.2 Q 1383.4 977.3, 1388.5 982.5 Q 1393.7 987.8, 1398.8 993.0 Q 1404.0 998.2, 1409.2 1003.2 Q 1414.4 1008.2, 1419.7 1011.9 Q 1425.0 1015.6, 1430.3 1016.3 Q 1435.7 1017.0, 1441.0 1014.4 Q 1446.3 1011.9, 1451.6 1007.4 Q 1456.9 1003.0, 1462.2 998.2 Q 1467.4 993.3, 1472.5 988.5 Q 1477.6 983.7, 1482.6 978.8 Q 1487.7 974.0, 1492.7 969.1 Q 1497.6 964.2, 1502.5 959.3 Q 1507.4 954.3, 1512.3 949.1 Q 1517.3 943.9, 1522.3 938.7 Q 1527.3 933.4, 1532.1 928.4 Q 1536.9 923.3, 1541.6 918.3 Q 1546.2 913.4, 1550.8 908.3 Q 1555.4 903.2, 1560.0 898.0 Q 1564.6 892.8, 1569.1 887.6 Q 1573.7 882.4, 1578.2 877.3 Q 1582.6 872.3, 1587.0 867.3 Q 1591.3 862.3, 1595.7 857.1 Q 1600.1 851.9, 1604.5 846.6 Q 1608.9 841.3, 1613.3 836.0 Q 1617.7 830.7, 1622.0 825.3 Q 1626.2 820.0, 1630.5 814.7 Q 1634.7 809.3, 1638.8 804.0 Q 1642.9 798.7, 1646.9 793.4 Q 1650.9 788.1, 1654.8 782.8 Q 1658.7 777.6, 1662.5 772.5 Q 1666.2 767.4, 1670.0 762.2 Q 1673.7 756.9, 1677.3 751.6 Q 1680.9 746.3, 1684.5 741.0 Q 1688.1 735.7, 1691.7 730.3 Q 1695.2 725.0, 1698.8 719.7 Q 1702.4 714.3, 1705.8 709.0 Q 1709.2 703.7, 1712.5 698.3 Q 1715.8 692.9, 1719.0 687.5 Q 1722.2 682.1, 1725.3 676.7 Q 1728.4 671.3, 1731.3 666.0 Q 1734.2 660.7, 1737.2 655.3 Q 1740.1 650.0, 1743.0 644.7 Q 1745.9 639.3, 1748.8 634.0 Q 1751.6 628.7, 1754.2 623.3 Q 1756.9 618.0, 1759.3 612.7 Q 1761.7 607.3, 1764.0 602.0 Q 1766.3 596.7, 1768.7 591.3 Q 1771.0 586.0, 1773.3 580.7 Q 1775.6 575.3, 1777.8 570.0 Q 1779.9 564.7, 1781.9 559.3 Q 1783.9 554.0, 1785.6 548.7 Q 1787.4 543.3, 1789.0 538.0 Q 1790.6 532.7, 1792.1 527.3 Q 1793.7 522.0, 1795.2 516.7 Q 1796.6 511.3, 1797.9 506.0 Q 1799.2 500.7, 1800.5 495.3 Q 1801.7 490.0, 1802.8 484.7 Q 1803.9 479.3, 1804.8 474.0 Q 1805.7 468.7, 1806.5 463.3 Q 1807.2 458.0, 1808.0 452.7 Q 1808.7 447.3, 1809.3 442.0 Q 1809.9 436.7, 1810.4 431.3 Q 1810.9 426.0, 1811.3 420.7 Q 1811.6 415.3, 1811.8 410.0 Q 1811.9 404.7, 1811.8 399.3 Q 1811.6 394.0, 1811.3 388.7 Q 1811.0 383.3, 1810.6 378.0 Q 1810.2 372.7, 1809.8 367.3 Q 1809.4 362.0, 1808.8 356.7 Q 1808.1 351.3, 1807.2 346.0 Q 1806.4 340.7, 1805.2 335.4 Q 1803.9 330.2, 1802.2 325.6 Q 1800.6 320.9, 1798.5 318.2 Q 1796.4 315.4, 1793.9 315.7 Z" fill="#FAFAFA" stroke="#D9E1E6" stroke-width="1.75" stroke-linejoin="round" filter="url(#bladeShadow)"/>
    <path d="M 1760.3 446.0 Q 1761.1 443.3, 1760.3 446.0 Q 1759.6 448.6, 1758.4 452.8 Q 1757.2 457.0, 1755.8 461.5 Q 1754.4 466.0, 1752.8 470.5 Q 1751.3 474.9, 1749.8 479.3 Q 1748.4 483.6, 1747.0 487.8 Q 1745.6 492.0, 1744.1 496.1 Q 1742.6 500.2, 1740.8 504.3 Q 1739.1 508.4, 1737.3 512.5 Q 1735.6 516.5, 1734.0 520.5 Q 1732.3 524.5, 1730.4 528.6 Q 1728.6 532.6, 1726.4 536.8 Q 1724.3 541.0, 1722.2 545.2 Q 1720.1 549.4, 1718.1 553.5 Q 1716.1 557.6, 1714.1 561.6 Q 1712.2 565.7, 1710.1 569.7 Q 1708.1 573.7, 1705.8 577.7 Q 1703.5 581.7, 1701.2 585.9 Q 1698.9 590.1, 1696.8 594.6 Q 1694.6 599.0, 1692.6 603.4 Q 1690.6 607.8, 1688.2 611.9 Q 1685.9 616.1, 1683.2 620.0 Q 1680.4 623.9, 1677.9 627.9 Q 1675.3 631.9, 1673.2 635.6 Q 1671.0 639.4, 1669.0 642.7 Q 1667.0 646.0, 1664.9 649.2 Q 1662.8 652.3, 1660.5 655.6 Q 1658.2 658.9, 1655.7 662.4 Q 1653.2 665.9, 1650.5 669.8 Q 1647.9 673.6, 1645.2 677.5 Q 1642.4 681.4, 1639.8 685.1 Q 1637.2 688.8, 1634.8 692.3 Q 1632.3 695.8, 1629.9 699.2 Q 1627.6 702.6, 1625.1 706.0 Q 1622.7 709.5, 1619.9 713.1 Q 1617.1 716.7, 1614.1 720.5 Q 1611.1 724.3, 1608.1 728.2 Q 1605.1 732.0, 1602.4 735.6 Q 1599.6 739.1, 1597.0 742.5 Q 1594.4 745.9, 1591.8 749.4 Q 1589.1 753.0, 1586.6 756.8 Q 1584.1 760.5, 1581.6 763.9 Q 1579.1 767.4, 1576.2 770.5 Q 1573.4 773.6, 1570.2 777.1 Q 1567.1 780.5, 1563.9 784.2 Q 1560.8 788.0, 1557.8 791.6 Q 1554.8 795.2, 1552.0 798.6 Q 1549.2 801.9, 1546.5 805.1 Q 1543.8 808.3, 1540.8 811.3 Q 1537.9 814.3, 1535.0 817.4 Q 1532.1 820.4, 1529.2 823.8 Q 1526.3 827.1, 1523.2 830.6 Q 1520.2 834.1, 1516.9 837.8 Q 1513.6 841.4, 1509.9 845.4 Q 1506.2 849.4, 1502.1 853.7 Q 1498.0 858.0, 1493.8 862.3 Q 1489.7 866.7, 1485.8 870.9 Q 1481.9 875.2, 1478.5 879.2 Q 1475.0 883.2, 1471.9 886.8 Q 1468.8 890.4, 1465.8 893.6 Q 1462.8 896.8, 1459.3 899.9 Q 1455.9 903.1, 1452.0 906.7 Q 1448.1 910.2, 1443.9 914.3 Q 1439.8 918.3, 1435.7 922.5 Q 1431.7 926.8, 1428.8 931.0 Q 1425.8 935.2, 1425.2 939.2 Q 1424.6 943.3, 1426.4 946.7 Q 1428.3 950.0, 1431.3 951.4 Q 1434.4 952.8, 1437.2 951.7 Q 1440.1 950.6, 1442.8 948.0 Q 1445.6 945.5, 1448.6 942.9 Q 1451.6 940.3, 1454.9 937.8 Q 1458.2 935.3, 1461.5 932.6 Q 1464.8 929.8, 1468.1 926.8 Q 1471.4 923.8, 1474.4 920.6 Q 1477.4 917.5, 1479.9 914.3 Q 1482.4 911.1, 1484.8 907.9 Q 1487.1 904.8, 1489.9 901.8 Q 1492.6 898.9, 1495.6 896.1 Q 1498.6 893.2, 1501.7 890.2 Q 1504.8 887.2, 1508.1 883.8 Q 1511.4 880.5, 1514.5 876.9 Q 1517.7 873.3, 1520.6 869.9 Q 1523.5 866.4, 1526.5 863.4 Q 1529.5 860.4, 1532.5 857.3 Q 1535.5 854.3, 1538.3 851.0 Q 1541.1 847.8, 1544.1 844.2 Q 1547.1 840.8, 1550.4 836.9 Q 1553.7 833.1, 1557.0 829.0 Q 1560.4 824.9, 1563.5 820.9 Q 1566.6 816.9, 1569.4 813.3 Q 1572.2 809.6, 1574.6 806.2 Q 1577.1 802.9, 1579.5 799.7 Q 1581.9 796.6, 1584.6 793.5 Q 1587.2 790.4, 1589.9 787.2 Q 1592.6 784.0, 1595.2 780.5 Q 1597.8 777.1, 1600.3 773.6 Q 1602.9 770.2, 1605.5 766.8 Q 1608.1 763.5, 1610.5 760.0 Q 1612.9 756.5, 1615.1 753.0 Q 1617.4 749.6, 1619.7 746.4 Q 1621.9 743.2, 1624.2 740.1 Q 1626.4 737.0, 1628.7 733.7 Q 1630.9 730.3, 1633.3 727.0 Q 1635.6 723.6, 1637.8 720.4 Q 1640.0 717.1, 1642.0 713.8 Q 1644.1 710.6, 1646.4 707.3 Q 1648.7 704.0, 1651.2 700.7 Q 1653.8 697.4, 1656.3 694.0 Q 1658.8 690.6, 1661.1 687.1 Q 1663.4 683.7, 1665.7 680.1 Q 1667.9 676.5, 1670.0 672.6 Q 1672.1 668.8, 1674.4 664.8 Q 1676.7 660.9, 1679.2 657.2 Q 1681.6 653.4, 1683.9 649.7 Q 1686.2 645.9, 1688.2 641.9 Q 1690.2 638.0, 1692.2 634.0 Q 1694.1 630.1, 1696.0 626.2 Q 1697.9 622.3, 1699.8 618.6 Q 1701.8 614.8, 1703.7 611.2 Q 1705.7 607.5, 1707.8 603.8 Q 1710.0 600.0, 1712.2 595.9 Q 1714.3 591.9, 1716.3 587.6 Q 1718.2 583.2, 1720.2 578.8 Q 1722.1 574.4, 1724.0 570.0 Q 1725.9 565.6, 1727.6 561.4 Q 1729.4 557.1, 1731.0 553.0 Q 1732.6 548.9, 1734.2 544.8 Q 1735.8 540.6, 1737.3 536.3 Q 1738.9 531.9, 1740.5 527.4 Q 1742.0 522.9, 1743.5 518.3 Q 1745.0 513.7, 1746.5 509.0 Q 1747.9 504.3, 1749.2 499.7 Q 1750.6 495.1, 1751.6 490.5 Q 1752.7 486.0, 1753.6 481.5 Q 1754.6 477.0, 1755.5 472.5 Q 1756.4 468.0, 1757.3 463.5 Q 1758.2 458.9, 1759.1 454.6 Q 1759.9 450.2, 1760.5 447.1 Q 1761.1 443.9, 1761.1 443.6 Z" fill="url(#reflectionGradient)" clip-path="url(#bladeClip)" opacity="0.98"/>
    <path d="M 1238.0 872.0 Q 1239.5 870.6, 1238.0 872.0 Q 1236.4 873.3, 1234.5 875.4 Q 1232.5 877.4, 1230.0 879.9 Q 1227.6 882.4, 1224.8 885.2 Q 1221.9 888.1, 1219.0 891.0 Q 1216.0 894.0, 1213.0 897.0 Q 1210.0 900.0, 1207.0 903.0 Q 1204.0 906.0, 1201.0 909.0 Q 1198.0 912.0, 1195.0 915.0 Q 1192.0 918.0, 1189.0 921.0 Q 1186.0 924.0, 1183.0 927.0 Q 1180.0 930.0, 1177.0 933.0 Q 1174.0 936.0, 1171.0 939.0 Q 1168.0 942.0, 1165.0 945.0 Q 1162.1 948.0, 1159.2 951.0 Q 1156.4 953.9, 1153.7 956.8 Q 1151.0 959.7, 1148.3 962.5 Q 1145.6 965.3, 1142.8 968.2 Q 1139.9 971.1, 1137.0 974.0 Q 1134.0 977.0, 1131.0 980.0 Q 1128.0 983.0, 1125.0 986.0 Q 1122.0 989.0, 1119.0 992.0 Q 1116.0 995.0, 1113.0 998.0 Q 1110.0 1001.0, 1107.0 1004.0 Q 1104.0 1007.0, 1101.0 1010.0 Q 1098.0 1013.0, 1095.0 1016.0 Q 1092.0 1019.0, 1089.0 1022.0 Q 1086.0 1025.0, 1083.0 1028.0 Q 1080.0 1031.0, 1077.0 1034.0 Q 1074.0 1037.0, 1071.0 1040.0 Q 1068.0 1043.0, 1065.0 1046.0 Q 1062.1 1049.0, 1059.2 1052.0 Q 1056.3 1054.9, 1053.6 1057.8 Q 1050.8 1060.6, 1048.2 1063.1 Q 1045.6 1065.7, 1043.2 1068.2 Q 1040.7 1070.7, 1038.2 1073.4 Q 1035.6 1076.1, 1032.9 1078.9 Q 1030.2 1081.7, 1027.5 1084.5 Q 1024.7 1087.3, 1021.8 1090.2 Q 1019.0 1093.1, 1016.2 1096.0 Q 1013.4 1099.0, 1010.8 1102.0 Q 1008.1 1105.0, 1005.8 1108.0 Q 1003.4 1111.0, 1001.5 1114.0 Q 999.5 1117.0, 998.0 1120.0 Q 996.4 1123.0, 995.2 1126.0 Q 994.1 1129.0, 993.1 1132.0 Q 992.1 1135.0, 991.4 1138.0 Q 990.8 1141.0, 990.4 1144.0 Q 990.1 1147.0, 990.1 1150.0 Q 990.1 1153.0, 990.2 1156.0 Q 990.4 1159.0, 990.8 1162.0 Q 991.1 1165.0, 991.8 1168.0 Q 992.4 1171.0, 993.3 1174.0 Q 994.2 1177.0, 995.5 1180.0 Q 996.8 1183.0, 998.5 1186.0 Q 1000.2 1189.0, 1002.3 1192.0 Q 1004.4 1195.0, 1006.9 1198.0 Q 1009.4 1200.9, 1012.2 1203.8 Q 1015.1 1206.6, 1018.0 1209.0 Q 1021.0 1211.5, 1024.0 1213.5 Q 1027.0 1215.6, 1030.0 1217.2 Q 1033.0 1218.9, 1036.0 1220.2 Q 1039.0 1221.6, 1042.0 1222.8 Q 1045.0 1223.9, 1048.0 1224.8 Q 1051.0 1225.6, 1054.0 1226.2 Q 1057.0 1226.9, 1060.0 1227.3 Q 1063.0 1227.7, 1066.0 1227.9 Q 1069.0 1228.2, 1072.0 1228.2 Q 1074.9 1228.3, 1077.8 1228.1 Q 1080.7 1227.8, 1083.5 1227.2 Q 1086.3 1226.6, 1089.2 1225.8 Q 1092.1 1224.9, 1095.0 1223.8 Q 1098.0 1222.6, 1101.0 1221.2 Q 1104.0 1219.9, 1106.9 1218.2 Q 1109.9 1216.6, 1112.6 1214.7 Q 1115.2 1212.8, 1117.5 1210.5 Q 1119.7 1208.2, 1121.2 1205.6 Q 1122.8 1202.9, 1123.6 1199.9 Q 1124.4 1197.0, 1124.7 1194.0 Q 1124.9 1191.0, 1125.0 1188.0 Q 1125.1 1185.0, 1125.2 1182.0 Q 1125.4 1179.0, 1125.8 1176.0 Q 1126.1 1173.0, 1126.8 1170.0 Q 1127.4 1167.0, 1128.2 1164.0 Q 1129.1 1161.0, 1130.2 1158.0 Q 1131.4 1155.0, 1132.8 1152.0 Q 1134.2 1149.0, 1136.0 1146.0 Q 1137.8 1143.0, 1140.0 1140.0 Q 1142.2 1137.1, 1144.8 1134.2 Q 1147.4 1131.4, 1150.2 1128.8 Q 1153.1 1126.2, 1156.0 1123.9 Q 1159.0 1121.7, 1162.0 1119.7 Q 1165.0 1117.8, 1168.0 1115.9 Q 1171.0 1114.0, 1174.0 1112.1 Q 1177.0 1110.2, 1180.0 1108.3 Q 1183.0 1106.4, 1186.0 1104.3 Q 1189.0 1102.2, 1192.0 1100.1 Q 1195.0 1098.0, 1198.0 1095.8 Q 1201.0 1093.7, 1204.0 1091.4 Q 1207.0 1089.2, 1210.0 1086.8 Q 1213.0 1084.4, 1216.0 1081.8 Q 1219.0 1079.2, 1222.0 1076.4 Q 1225.0 1073.7, 1227.9 1070.8 Q 1230.9 1068.0, 1233.6 1065.2 Q 1236.4 1062.3, 1239.0 1059.5 Q 1241.6 1056.7, 1244.1 1053.8 Q 1246.7 1050.9, 1249.1 1048.0 Q 1251.6 1045.0, 1253.8 1042.0 Q 1256.0 1039.0, 1258.1 1036.0 Q 1260.2 1033.0, 1262.3 1030.0 Q 1264.4 1027.0, 1266.3 1024.0 Q 1268.2 1021.0, 1270.1 1018.0 Q 1272.0 1015.0, 1273.8 1012.0 Q 1275.6 1009.0, 1277.3 1006.0 Q 1278.9 1003.0, 1280.5 1000.0 Q 1282.0 997.0, 1283.5 994.0 Q 1285.1 991.0, 1286.7 988.0 Q 1288.3 985.0, 1290.1 982.0 Q 1291.8 979.0, 1293.8 976.0 Q 1295.8 973.0, 1298.1 970.0 Q 1300.5 967.1, 1303.3 964.3 Q 1306.1 961.5, 1309.0 959.1 Q 1311.9 956.8, 1314.3 954.7 Q 1316.8 952.6, 1317.8 950.4 Q 1318.8 948.2, 1318.0 945.8 Q 1317.1 943.2, 1315.0 940.7 Q 1312.9 938.1, 1310.5 935.5 Q 1308.0 933.0, 1305.5 930.5 Q 1302.9 927.9, 1300.3 925.3 Q 1297.6 922.6, 1294.8 919.8 Q 1292.0 916.9, 1289.2 914.0 Q 1286.3 911.0, 1283.5 908.0 Q 1280.7 905.0, 1277.8 902.0 Q 1274.9 899.1, 1272.0 896.2 Q 1269.1 893.4, 1266.2 890.7 Q 1263.4 888.0, 1260.7 885.3 Q 1258.0 882.6, 1255.3 879.9 Q 1252.6 877.2, 1249.9 874.9 Q 1247.2 872.6, 1245.0 871.4 Q 1242.8 870.2, 1241.1 870.4 Z" fill="#006047"/>
</svg>
